<?xml version="1.0" standalone="no"?><!DOCTYPE svg PUBLIC "-//W3C//DTD SVG 1.1//EN" "http://www.w3.org/Graphics/SVG/1.1/DTD/svg11.dtd"><svg class="icon" width="200px" height="200.00px" viewBox="0 0 1024 1024" version="1.1" xmlns="http://www.w3.org/2000/svg"><path fill="#ffffff" d="M804.571429 564.114286H416.365714v-73.142857H804.571429c37.668571 0 68.388571-30.72 68.388571-68.388572 0-37.668571-30.72-68.388571-68.388571-68.388571v-73.142857c78.08 0 141.531429 63.451429 141.531428 141.531428s-63.451429 141.531429-141.531428 141.531429zM602.697143 949.76v-73.142857c37.668571 0 68.388571-30.72 68.388571-68.388572 0-37.668571-30.72-68.388571-68.388571-68.388571H214.491429v-73.142857h388.205714c78.08 0 141.531429 63.451429 141.531428 141.531428s-63.451429 141.531429-141.531428 141.531429zM522.057143 357.12H133.851429v-73.142857h388.205714c37.668571 0 68.388571-30.72 68.388571-68.388572 0-37.668571-30.72-68.388571-68.388571-68.388571v-73.142857c78.08 0 141.531429 63.451429 141.531428 141.531428s-63.634286 141.531429-141.531428 141.531429zM77.897143 491.337143h263.862857v73.142857H77.897143z"  /></svg>