<?xml version="1.0" standalone="no"?><!DOCTYPE svg PUBLIC "-//W3C//DTD SVG 1.1//EN" "http://www.w3.org/Graphics/SVG/1.1/DTD/svg11.dtd"><svg class="icon" width="200px" height="200.00px" viewBox="0 0 1024 1024" version="1.1" xmlns="http://www.w3.org/2000/svg"><path fill="#ffffff" d="M836.266667 273.066667a85.333333 85.333333 0 1 0 0-170.666667 85.333333 85.333333 0 0 0 0 170.666667zM170.666667 307.2a34.133333 34.133333 0 1 0 0-68.266667 34.133333 34.133333 0 0 0 0 68.266667z m819.2-119.466667a153.6 153.6 0 1 1-307.2 0 153.6 153.6 0 0 1 307.2 0zM273.066667 273.066667a102.4 102.4 0 1 1-204.8 0 102.4 102.4 0 0 1 204.8 0z m238.933333-19.592534l192.8192 195.003734c107.008 108.2368 107.008 284.0576 0 392.260266a270.336 270.336 0 0 1-385.6384 0c-107.008-108.202667-107.008-283.989333 0-392.260266L512 253.474133z m241.3568 147.012267l-217.224533-219.716267a33.860267 33.860267 0 0 0-48.264534 0l-217.224533 219.716267c-133.290667 134.826667-133.290667 353.416533 0 488.277333a338.602667 338.602667 0 0 0 482.7136 0c133.290667-134.826667 133.290667-353.450667 0-488.277333zM648.533333 648.533333a34.133333 34.133333 0 1 1 68.266667 0 204.8 204.8 0 0 1-204.8 204.8 34.133333 34.133333 0 1 1 0-68.266666 136.533333 136.533333 0 0 0 136.533333-136.533334z"  /></svg>